<svg width="301" height="301" viewBox="0 0 301 301" fill="none" xmlns="http://www.w3.org/2000/svg">
<path d="M80.9448 143.12C116.186 179.456 162.498 204.68 205.426 163.967C227.556 142.993 256.801 86.3509 227.941 60.4228C188.167 24.7001 165.333 83.1483 135.612 91.0706C115.229 96.4886 98.0898 65.1846 73.6907 86.0981C54.4026 102.623 66.2921 128.015 80.9448 143.12Z" fill="#4AC3F0"/>
<path opacity="0.9" d="M80.9448 143.12C116.186 179.456 162.498 204.68 205.426 163.967C227.556 142.993 256.801 86.3509 227.941 60.4228C188.167 24.7001 165.333 83.1483 135.612 91.0706C115.229 96.4886 98.0898 65.1846 73.6907 86.0981C54.4026 102.623 66.2921 128.015 80.9448 143.12Z" fill="white"/>
<path d="M150.5 257.391C214.964 257.391 267.222 254.34 267.222 250.576C267.222 246.813 214.964 243.762 150.5 243.762C86.0362 243.762 33.7781 246.813 33.7781 250.576C33.7781 254.34 86.0362 257.391 150.5 257.391Z" fill="#F5F5F5"/>
<path d="M210.249 98.3846L204.277 95.9766C204.277 95.9766 196.397 110.346 194.139 111.075C191.069 112.062 184.712 114.807 180.943 115.289C180.432 115.891 179.595 117.763 179.673 118.443C184.736 120.135 195.861 117.889 198.245 116.119C203.669 112.104 210.249 98.3846 210.249 98.3846Z" fill="#E58A7B"/>
<path d="M212.085 95.1159C213.198 99.2276 207.166 107.499 207.166 107.499L199.262 103.068C199.262 103.068 200.743 99.667 202.549 96.2055C205.445 90.6129 210.814 90.4263 212.085 95.1159Z" fill="#4AC3F0"/>
<path opacity="0.2" d="M212.085 95.1159C213.198 99.2276 207.166 107.499 207.166 107.499L199.262 103.068C199.262 103.068 200.743 99.667 202.549 96.2055C205.445 90.6129 210.814 90.4263 212.085 95.1159Z" fill="black"/>
<path opacity="0.2" d="M202.399 104.838L205.511 106.584L206.059 97.0303C204.247 98.4209 202.97 102.611 202.399 104.838Z" fill="black"/>
<path d="M206.884 92.0215C206.884 92.0215 200.731 105.711 204.319 131.2H228.562C228.947 127.479 227.671 109.323 232.288 91.7928C229.629 91.273 226.938 90.9292 224.233 90.7634C220.803 90.5646 217.363 90.5646 213.933 90.7634C211.555 91.0048 209.198 91.4254 206.884 92.0215Z" fill="#4AC3F0"/>
<path opacity="0.2" d="M206.884 92.0215C206.884 92.0215 200.731 105.711 204.319 131.2H228.562C228.947 127.479 227.671 109.323 232.288 91.7928C229.629 91.273 226.938 90.9292 224.233 90.7634C220.803 90.5646 217.363 90.5646 213.933 90.7634C211.555 91.0048 209.198 91.4254 206.884 92.0215Z" fill="black"/>
<g style="mix-blend-mode:multiply">
<path d="M201.261 251.118C201.225 251.768 210.417 252.292 221.789 252.292C233.161 252.292 242.42 251.768 242.456 251.118C242.492 250.468 233.305 249.95 221.927 249.95C210.55 249.95 201.303 250.474 201.261 251.118Z" fill="#E8ECF1"/>
</g>
<path d="M217.443 234.035L213.143 235.7L216.847 245.268L221.146 243.603L217.443 234.035Z" fill="#E58A7B"/>
<path d="M236.616 246.489H232.083L230.422 235.996H234.955L236.616 246.489Z" fill="#E58A7B"/>
<path d="M231.77 245.965H236.863C236.952 245.965 237.037 245.997 237.104 246.054C237.171 246.111 237.216 246.191 237.23 246.278L237.887 250.305C237.9 250.406 237.892 250.509 237.863 250.607C237.833 250.704 237.783 250.795 237.716 250.871C237.649 250.948 237.565 251.009 237.472 251.05C237.379 251.092 237.278 251.113 237.176 251.112C235.4 251.082 234.545 250.973 232.306 250.973C230.927 250.973 228.092 251.118 226.178 251.118C224.263 251.118 224.137 249.24 224.925 249.065C228.465 248.301 229.838 247.259 231.018 246.248C231.226 246.065 231.493 245.964 231.77 245.965Z" fill="#263238"/>
<path d="M216.72 244.412L221.536 243.003C221.622 242.979 221.714 242.985 221.796 243.02C221.878 243.055 221.946 243.117 221.988 243.196L223.794 246.808C223.836 246.899 223.857 246.999 223.857 247.1C223.856 247.201 223.833 247.3 223.79 247.391C223.747 247.482 223.685 247.563 223.608 247.627C223.53 247.692 223.44 247.739 223.342 247.765C221.59 248.246 220.416 248.541 218.225 249.18C216.714 249.619 215.173 250.335 213.68 250.811C212.645 251.142 210.213 251.154 208.954 251.154C207.094 251.154 206.679 249.192 207.479 249.101C209.496 248.879 209.767 248.981 210.881 248.421C212.703 247.624 214.355 246.484 215.745 245.062C216.007 244.763 216.344 244.539 216.72 244.412Z" fill="#263238"/>
<path d="M181.702 115.265L176.717 113.176L174.664 118.702C176.707 119.013 178.786 119.013 180.829 118.702L181.702 115.265Z" fill="#E58A7B"/>
<path d="M173.009 113.031L172.876 116.703L174.664 118.69L176.717 113.164L173.009 113.031Z" fill="#E58A7B"/>
<path d="M218.033 234.848L213.72 236.513L215.63 241.46L219.943 239.795L218.033 234.848Z" fill="#CF6F64"/>
<path d="M234.955 235.996H230.422L231.283 241.408H235.816L234.955 235.996Z" fill="#CF6F64"/>
<path opacity="0.2" d="M203.548 124.307C203.639 125.397 203.741 126.51 203.873 127.654L221.897 121.803C224.712 120.968 227.158 119.2 228.832 116.788C228.905 115.181 228.995 113.489 229.133 111.725C229.194 110.87 229.266 109.991 229.344 109.1C229.422 108.209 229.531 107.222 229.645 106.271L203.548 124.307Z" fill="black"/>
<path d="M209.436 104.561L208.834 104.489C209.189 101.479 211.434 99.1069 213.8 99.1671V99.7691C211.729 99.727 209.755 101.864 209.436 104.561Z" fill="white"/>
<path d="M212.645 110.118H212.542V109.516C214.613 109.594 216.558 107.433 216.877 104.742L217.479 104.814C217.16 107.758 214.986 110.118 212.645 110.118Z" fill="white"/>
<path d="M223.896 79.1626C223.047 82.4796 222.048 88.5538 224.233 90.7631C224.233 90.7631 222.704 94.1283 216.545 94.1283C210.917 94.1283 213.933 90.7631 213.933 90.7631C217.677 89.8842 217.743 87.1511 217.25 84.5625L223.896 79.1626Z" fill="#E58A7B"/>
<path d="M221.187 81.3662L217.256 84.5628C217.378 85.1577 217.448 85.7619 217.467 86.3688C218.616 87.5126 220.922 84.617 221.157 83.1361C221.276 82.5531 221.286 81.953 221.187 81.3662Z" fill="#CF6F64"/>
<path d="M210.496 79.1207C210.769 79.5948 211.137 80.0074 211.578 80.3326C212.018 80.6579 212.52 80.8888 213.054 81.011C214.499 81.3301 215.221 79.9996 214.824 78.6632C214.469 77.4592 213.283 75.8398 211.814 76.1167C211.499 76.1816 211.205 76.3208 210.955 76.5229C210.705 76.7249 210.507 76.9839 210.378 77.278C210.249 77.5722 210.193 77.893 210.213 78.2136C210.233 78.5342 210.33 78.8453 210.496 79.1207Z" fill="#CF6F64"/>
<path d="M212.885 68.5072C210.634 69.5366 209.839 78.4823 212.669 79.8067C215.498 81.1311 217.148 66.5507 212.885 68.5072Z" fill="#263238"/>
<path d="M224.582 74.172C224.041 78.663 223.98 81.3058 221.572 83.6054C220.826 84.3685 219.884 84.9106 218.849 85.1718C217.814 85.433 216.727 85.4031 215.708 85.0854C214.689 84.7678 213.778 84.1748 213.075 83.3718C212.372 82.5688 211.904 81.5872 211.724 80.5352C210.995 76.5018 212.001 69.8376 216.504 68.0497C217.45 67.6324 218.49 67.4757 219.517 67.596C220.544 67.7162 221.52 68.1089 222.345 68.7335C223.169 69.3581 223.811 70.1917 224.204 71.148C224.598 72.1042 224.728 73.1483 224.582 74.172Z" fill="#E58A7B"/>
<path d="M217.184 70.8311C220.519 69.9823 222.969 69.4044 222.09 72.1796C220.928 75.8879 219.531 79.4758 221.404 79.6384C222.548 79.7407 227.604 77.5976 226.96 75.4244C226.4 73.5341 228.766 73.0164 229.188 72.0592C230.747 68.5917 226.286 69.0492 227.081 66.9422C227.875 64.8352 223.469 61.4399 221.061 63.1315C217.142 65.8646 210.417 65.8225 213.951 61.3255C216.485 58.1169 211.964 58.7731 211.964 58.7731C211.964 58.7731 214.697 60.3924 210.098 62.8968C205.234 65.5696 209.695 72.7515 217.184 70.8311Z" fill="#263238"/>
<path d="M226.352 79.1207C225.694 80.0734 224.705 80.7472 223.577 81.011C222.09 81.3301 221.518 79.9996 222.078 78.6632C222.578 77.4592 223.95 75.8398 225.371 76.1167C226.792 76.3937 227.117 77.9408 226.352 79.1207Z" fill="#E58A7B"/>
<path d="M204.319 131.2C204.319 131.2 200.249 167.621 199.93 181.443C199.605 195.818 213.722 240.673 213.722 240.673L220.946 237.663C220.946 237.663 212.518 196.679 213.722 182.562C214.998 167.169 220.272 131.224 220.272 131.224L204.319 131.2Z" fill="#4AC3F0"/>
<path opacity="0.2" d="M214.432 141.199C211.188 147.929 213.373 161.24 215.131 169.126C215.799 163.557 216.594 157.513 217.346 151.921C217.274 143.324 216.606 136.684 214.432 141.199Z" fill="black"/>
<path d="M220.627 235.279C220.663 235.279 221.482 237.579 221.482 237.579L213.15 241.083L211.838 238.638L220.627 235.279Z" fill="#4AC3F0"/>
<path d="M212.922 131.2C212.922 131.2 216.034 165.839 218.093 178.812C220.356 193.025 229.23 240.36 229.23 240.36H237.531C237.531 240.36 232.559 194.175 231.62 180.1C230.596 164.833 228.562 131.2 228.562 131.2H212.922Z" fill="#4AC3F0"/>
<path d="M237.658 238.199C237.694 238.199 237.935 240.517 237.935 240.517H228.808L228.158 237.856L237.658 238.199Z" fill="#4AC3F0"/>
<path opacity="0.2" d="M234.479 235.454C234.46 235.454 234.442 235.448 234.428 235.436C234.413 235.423 234.404 235.406 234.401 235.388C234.353 234.966 229.868 193.248 229.025 180.606C228.11 166.892 226.268 136.473 226.25 136.166C226.249 136.156 226.25 136.146 226.253 136.137C226.257 136.127 226.262 136.118 226.269 136.111C226.276 136.104 226.284 136.098 226.293 136.094C226.302 136.09 226.312 136.088 226.322 136.088C226.342 136.088 226.361 136.095 226.375 136.109C226.39 136.122 226.399 136.14 226.4 136.16C226.4 136.467 228.261 166.862 229.176 180.6C230.018 193.242 234.503 234.93 234.545 235.382C234.547 235.392 234.547 235.402 234.544 235.412C234.542 235.422 234.537 235.431 234.531 235.439C234.525 235.447 234.517 235.453 234.508 235.458C234.499 235.463 234.489 235.465 234.479 235.466V235.454Z" fill="black"/>
<path d="M217.695 75.4244C217.695 75.7916 217.466 76.0866 217.226 76.0866C216.985 76.0866 216.81 75.7916 216.834 75.4244C216.858 75.0572 217.063 74.7622 217.304 74.7622C217.545 74.7622 217.719 75.0632 217.695 75.4244Z" fill="#263238"/>
<path d="M213.566 75.4244C213.566 75.7916 213.331 76.0866 213.096 76.0866C212.861 76.0866 212.681 75.7916 212.699 75.4244C212.717 75.0572 212.934 74.7622 213.174 74.7622C213.415 74.7622 213.59 75.0632 213.566 75.4244Z" fill="#263238"/>
<path d="M214.866 75.6108C214.363 76.7322 213.716 77.7826 212.94 78.7352C213.542 79.3372 214.667 79.0603 214.667 79.0603L214.866 75.6108Z" fill="#DF5753"/>
<path d="M214.974 80.5955C214.96 80.5955 214.947 80.5927 214.934 80.5871C214.921 80.5816 214.909 80.5735 214.9 80.5634C214.89 80.5532 214.883 80.5412 214.878 80.5281C214.873 80.515 214.871 80.501 214.872 80.4871C214.874 80.4578 214.886 80.4303 214.908 80.4101C214.929 80.3899 214.957 80.3787 214.986 80.3788C215.447 80.3819 215.902 80.2819 216.319 80.0861C216.736 79.8902 217.103 79.6035 217.394 79.247C217.415 79.2288 217.442 79.2188 217.47 79.2188C217.497 79.2188 217.524 79.2288 217.545 79.247C217.564 79.2672 217.575 79.2942 217.575 79.3222C217.575 79.3503 217.564 79.3773 217.545 79.3975C217.233 79.7764 216.84 80.0807 216.395 80.288C215.951 80.4953 215.465 80.6003 214.974 80.5955Z" fill="#263238"/>
<path d="M218.43 74.317C218.401 74.3318 218.369 74.3395 218.337 74.3395C218.304 74.3395 218.272 74.3318 218.243 74.317C218.018 74.1714 217.762 74.0808 217.495 74.0526C217.228 74.0244 216.959 74.0593 216.708 74.1544C216.684 74.1667 216.657 74.1739 216.63 74.1756C216.603 74.1774 216.575 74.1737 216.549 74.1647C216.524 74.1557 216.5 74.1417 216.48 74.1234C216.459 74.1051 216.443 74.0829 216.431 74.0581C216.409 74.0045 216.408 73.9444 216.43 73.8904C216.451 73.8364 216.493 73.7929 216.546 73.7692C216.86 73.6406 217.201 73.5899 217.54 73.6214C217.878 73.6528 218.204 73.7655 218.49 73.9498C218.513 73.9655 218.533 73.9856 218.548 74.0089C218.563 74.0323 218.574 74.0585 218.579 74.0859C218.584 74.1134 218.583 74.1415 218.577 74.1688C218.572 74.1961 218.56 74.2219 218.544 74.2447C218.514 74.2793 218.474 74.3043 218.43 74.317Z" fill="#263238"/>
<path d="M211.97 73.1126C211.938 73.1048 211.909 73.0881 211.886 73.0644C211.866 73.0448 211.85 73.0214 211.839 72.9956C211.828 72.9697 211.823 72.942 211.823 72.9139C211.823 72.8859 211.828 72.8582 211.839 72.8323C211.85 72.8065 211.866 72.7831 211.886 72.7634C212.117 72.5047 212.404 72.3026 212.726 72.1732C213.047 72.0437 213.394 71.9902 213.74 72.017C213.768 72.0212 213.794 72.0311 213.818 72.0461C213.842 72.061 213.862 72.0807 213.878 72.1038C213.894 72.127 213.905 72.1531 213.91 72.1806C213.915 72.2081 213.915 72.2364 213.909 72.2638C213.896 72.3195 213.863 72.3686 213.816 72.4019C213.77 72.4351 213.713 72.4503 213.656 72.4444C213.382 72.4271 213.108 72.4724 212.855 72.5767C212.602 72.681 212.375 72.8416 212.193 73.0464C212.166 73.0768 212.13 73.0992 212.091 73.1108C212.052 73.1225 212.01 73.1231 211.97 73.1126Z" fill="#263238"/>
<path d="M234.618 97.7164L228.357 96.0488C228.357 96.0488 222.216 111.165 220.043 112.146C217.093 113.495 209.623 118.166 206.444 120.376C206.269 121.128 206.408 123.121 206.805 123.669C212.223 122.681 222.596 118.69 224.763 116.661C229.705 112.032 234.618 97.7164 234.618 97.7164Z" fill="#E58A7B"/>
<path d="M230.247 246.76C229.942 246.784 229.637 246.701 229.386 246.525C229.309 246.455 229.251 246.366 229.218 246.267C229.185 246.167 229.179 246.061 229.2 245.959C229.203 245.895 229.224 245.833 229.26 245.78C229.297 245.727 229.346 245.685 229.404 245.658C229.91 245.399 231.325 246.296 231.487 246.398C231.505 246.409 231.519 246.426 231.527 246.446C231.534 246.465 231.535 246.487 231.529 246.507C231.524 246.528 231.514 246.547 231.499 246.563C231.484 246.579 231.466 246.591 231.445 246.597C231.053 246.694 230.651 246.748 230.247 246.76ZM229.645 245.821C229.6 245.81 229.552 245.81 229.507 245.821C229.484 245.832 229.464 245.85 229.452 245.873C229.439 245.895 229.433 245.921 229.434 245.947C229.418 246.017 229.421 246.09 229.442 246.159C229.463 246.227 229.502 246.289 229.555 246.338C229.79 246.549 230.38 246.573 231.156 246.423C230.694 246.118 230.173 245.913 229.627 245.821H229.645Z" fill="#4AC3F0"/>
<path d="M231.415 246.597C231.399 246.602 231.383 246.602 231.367 246.597C230.915 246.345 230.067 245.351 230.193 244.846C230.212 244.765 230.257 244.694 230.322 244.643C230.386 244.591 230.466 244.563 230.548 244.563C230.629 244.552 230.711 244.559 230.789 244.582C230.867 244.606 230.939 244.647 231 244.701C231.499 245.129 231.529 246.441 231.529 246.507C231.532 246.527 231.529 246.547 231.519 246.565C231.509 246.582 231.494 246.596 231.475 246.603C231.455 246.608 231.434 246.605 231.415 246.597ZM230.608 244.761H230.566C230.428 244.761 230.41 244.84 230.404 244.87C230.332 245.165 230.867 245.917 231.313 246.272C231.311 245.764 231.153 245.268 230.861 244.852C230.791 244.791 230.701 244.758 230.608 244.761Z" fill="#4AC3F0"/>
<path d="M214.264 246.007C213.896 246.136 213.495 246.136 213.126 246.007C213.043 245.962 212.972 245.896 212.92 245.816C212.869 245.736 212.838 245.645 212.831 245.55C212.824 245.49 212.831 245.43 212.853 245.374C212.875 245.318 212.911 245.269 212.958 245.231C213.439 244.797 215.408 245.231 215.631 245.315C215.652 245.32 215.67 245.333 215.684 245.35C215.697 245.368 215.703 245.389 215.703 245.411C215.704 245.434 215.698 245.456 215.686 245.476C215.674 245.495 215.657 245.51 215.637 245.52C215.193 245.72 214.734 245.883 214.264 246.007ZM213.283 245.291C213.214 245.305 213.15 245.336 213.096 245.381C213.077 245.396 213.062 245.415 213.054 245.437C213.045 245.46 213.043 245.484 213.048 245.508C213.052 245.571 213.072 245.632 213.105 245.686C213.139 245.739 213.185 245.784 213.241 245.815C213.56 245.983 214.3 245.851 215.257 245.447C214.613 245.285 213.945 245.232 213.283 245.291Z" fill="#4AC3F0"/>
<path d="M215.618 245.519H215.57C214.968 245.411 213.764 244.719 213.728 244.201C213.728 244.081 213.782 243.912 214.071 243.816C214.169 243.781 214.272 243.766 214.376 243.772C214.479 243.779 214.58 243.806 214.673 243.852C215.323 244.171 215.666 245.327 215.685 245.381C215.689 245.399 215.688 245.418 215.683 245.436C215.678 245.454 215.668 245.47 215.654 245.483C215.645 245.498 215.633 245.51 215.618 245.519ZM214.192 243.996H214.131C213.945 244.062 213.945 244.141 213.945 244.165C213.945 244.478 214.818 245.05 215.426 245.242C215.286 244.759 214.989 244.335 214.583 244.038C214.462 243.977 214.323 243.962 214.192 243.996Z" fill="#4AC3F0"/>
<path d="M206.956 120.021L200.677 122.91L199.948 124.716L202.266 126.275C202.266 126.275 206.601 125.806 207.835 123.018L206.956 120.021Z" fill="#E58A7B"/>
<path d="M207.22 123.771C207.08 122.565 206.682 121.402 206.052 120.364L207.046 119.617C207.793 120.814 208.27 122.16 208.442 123.56L207.22 123.771Z" fill="#263238"/>
<path d="M208.292 120.876C208.425 121.084 208.49 121.329 208.479 121.576C208.468 121.823 208.381 122.061 208.229 122.257C208.078 122.453 207.871 122.597 207.634 122.671C207.398 122.745 207.145 122.744 206.909 122.668C206.674 122.593 206.467 122.447 206.317 122.25C206.168 122.053 206.082 121.815 206.073 121.568C206.063 121.32 206.13 121.076 206.265 120.868C206.399 120.661 206.594 120.499 206.823 120.406C207.08 120.275 207.379 120.251 207.654 120.339C207.929 120.427 208.158 120.62 208.292 120.876Z" fill="#263238"/>
<path d="M196.433 125.246L197.27 126.089L202.904 123.681L200.677 122.91L196.433 125.246Z" fill="#E58A7B"/>
<path opacity="0.2" d="M220.627 235.279C220.663 235.279 221.482 237.579 221.482 237.579L213.15 241.083L211.838 238.638L220.627 235.279Z" fill="black"/>
<path opacity="0.2" d="M237.658 238.199C237.694 238.199 237.935 240.517 237.935 240.517H228.808L228.158 237.856L237.658 238.199Z" fill="black"/>
<path d="M236.249 95.9828C237.904 101.323 231.433 108.625 231.433 108.625L222.493 104.977C223.553 101.89 224.775 98.8621 226.153 95.9046C228.899 89.9869 234.575 90.5949 236.249 95.9828Z" fill="#4AC3F0"/>
<path opacity="0.2" d="M236.249 95.9828C237.904 101.323 231.433 108.625 231.433 108.625L222.493 104.977C223.553 101.89 224.775 98.8621 226.153 95.9046C228.899 89.9869 234.575 90.5949 236.249 95.9828Z" fill="black"/>
<path d="M147.418 42.4834H143.571V43.1035H147.418V42.4834Z" fill="#4AC3F0"/>
<path d="M197.214 67.0246L196.748 77.3564L197.368 77.3844L197.833 67.0525L197.214 67.0246Z" fill="#4AC3F0"/>
<path d="M196.017 45.2646H124.981L118.371 193.188H189.407L196.017 45.2646Z" fill="#4AC3F0"/>
<path opacity="0.56" d="M193.898 47.2993H122.862L116.252 195.223H187.288L193.898 47.2993Z" fill="#FAFAFA"/>
<path opacity="0.07" d="M191.779 49.3281H120.743L114.127 197.252H185.163L191.779 49.3281Z" fill="#4AC3F0"/>
<path d="M183.694 113.844H123.061L122.555 125.162H183.188L183.694 113.844Z" fill="white"/>
<path d="M156.405 105.585H123.428L123.205 110.648H156.183L156.405 105.585Z" fill="#4AC3F0"/>
<path d="M182.327 144.39H121.694L121.188 155.708H181.822L182.327 144.39Z" fill="white"/>
<path opacity="0.47" d="M171.209 170.992H130.435L129.827 184.555H170.601L171.209 170.992Z" fill="#4AC3F0"/>
<path d="M168.482 186.662H127.708C127.69 186.667 127.672 186.667 127.654 186.662C127.648 186.645 127.648 186.626 127.654 186.608L128.256 173.039C128.256 173.03 128.258 173.021 128.261 173.012C128.265 173.004 128.271 172.996 128.277 172.99C128.284 172.984 128.292 172.979 128.301 172.976C128.31 172.973 128.319 172.972 128.328 172.973H169.102C169.109 172.969 169.117 172.967 169.126 172.967C169.134 172.967 169.142 172.969 169.15 172.973C169.154 172.98 169.156 172.989 169.156 172.997C169.156 173.005 169.154 173.014 169.15 173.021L168.56 186.62C168.553 186.634 168.541 186.646 168.527 186.654C168.513 186.661 168.497 186.664 168.482 186.662ZM127.78 186.518H168.409L169.011 173.093H128.382L127.78 186.518Z" fill="white"/>
<path d="M149.284 136.13H122.062L121.839 141.199H149.055L149.284 136.13Z" fill="#4AC3F0"/>
<path d="M170.432 77.2852C170.276 80.579 169.105 83.7438 167.079 86.3453C165.579 88.3103 163.649 89.9056 161.437 91.0086C159.224 92.1116 156.789 92.6931 154.317 92.7084C152.319 92.7237 150.339 92.3298 148.5 91.551C146.66 90.7722 144.999 89.625 143.62 88.1801C142.24 86.7352 141.171 85.0231 140.479 83.1494C139.786 81.2757 139.484 79.28 139.592 77.2852C139.803 73.1459 141.588 69.2438 144.582 66.3769C147.575 63.51 151.55 61.8949 155.695 61.862C157.694 61.8433 159.676 62.2348 161.518 63.0123C163.36 63.7897 165.023 64.9366 166.404 66.3821C167.785 67.8275 168.855 69.5409 169.548 71.4162C170.241 73.2915 170.542 75.289 170.432 77.2852Z" fill="white"/>
<path d="M171.883 65.0884C171.844 65.9642 171.532 66.8059 170.992 67.4964C170.592 68.0183 170.079 68.442 169.49 68.7352C168.902 69.0283 168.254 69.1832 167.597 69.188C166.96 69.1919 166.332 69.0397 165.767 68.7449C165.203 68.45 164.719 68.0213 164.358 67.4964C163.88 66.787 163.644 65.9427 163.684 65.0884C163.742 63.9894 164.217 62.954 165.013 62.1933C165.808 61.4326 166.863 61.004 167.964 60.9948C168.495 60.9899 169.021 61.0939 169.51 61.3001C170 61.5064 170.441 61.8107 170.809 62.1942C171.176 62.5777 171.461 63.0324 171.645 63.5301C171.83 64.0279 171.911 64.5582 171.883 65.0884Z" fill="#4AC3F0"/>
<path d="M129.592 119.503C129.563 119.988 129.352 120.445 129 120.78C128.648 121.115 128.182 121.304 127.696 121.309C127.461 121.312 127.229 121.267 127.012 121.176C126.796 121.085 126.6 120.951 126.438 120.782C126.275 120.613 126.149 120.412 126.068 120.192C125.986 119.972 125.95 119.738 125.962 119.503C125.988 119.017 126.199 118.559 126.552 118.224C126.904 117.888 127.372 117.7 127.859 117.697C128.093 117.695 128.325 117.741 128.541 117.832C128.757 117.923 128.952 118.058 129.115 118.227C129.277 118.396 129.403 118.596 129.485 118.816C129.567 119.035 129.604 119.269 129.592 119.503Z" fill="#263238"/>
<path d="M137.707 119.503C137.68 119.989 137.468 120.446 137.116 120.781C136.764 121.117 136.297 121.306 135.811 121.309C135.577 121.311 135.345 121.265 135.129 121.174C134.913 121.083 134.719 120.949 134.557 120.78C134.395 120.611 134.269 120.41 134.188 120.191C134.107 119.971 134.071 119.737 134.083 119.503C134.109 119.018 134.319 118.561 134.671 118.226C135.022 117.89 135.488 117.701 135.973 117.697C136.208 117.695 136.441 117.74 136.657 117.831C136.874 117.921 137.069 118.056 137.232 118.225C137.394 118.394 137.52 118.595 137.602 118.815C137.684 119.035 137.72 119.269 137.707 119.503Z" fill="#263238"/>
<path d="M145.828 119.503C145.801 119.989 145.589 120.446 145.237 120.781C144.885 121.117 144.418 121.306 143.932 121.309C143.698 121.311 143.465 121.265 143.249 121.174C143.033 121.083 142.838 120.949 142.676 120.78C142.514 120.611 142.387 120.411 142.305 120.191C142.223 119.972 142.187 119.738 142.198 119.503C142.226 119.018 142.437 118.561 142.789 118.225C143.141 117.89 143.608 117.701 144.095 117.697C144.329 117.695 144.562 117.74 144.778 117.831C144.995 117.921 145.19 118.056 145.353 118.225C145.515 118.394 145.641 118.595 145.723 118.815C145.805 119.035 145.841 119.269 145.828 119.503Z" fill="#263238"/>
<path d="M128.226 150.049C128.197 150.534 127.985 150.99 127.633 151.325C127.281 151.66 126.816 151.849 126.33 151.855C126.095 151.857 125.863 151.811 125.647 151.72C125.431 151.629 125.236 151.494 125.073 151.325C124.911 151.156 124.785 150.956 124.703 150.736C124.621 150.517 124.584 150.283 124.596 150.049C124.623 149.563 124.835 149.106 125.187 148.771C125.539 148.435 126.006 148.247 126.492 148.243C126.726 148.241 126.959 148.287 127.175 148.378C127.391 148.469 127.586 148.603 127.748 148.772C127.911 148.941 128.037 149.142 128.119 149.361C128.201 149.581 128.237 149.815 128.226 150.049Z" fill="#263238"/>
<path d="M136.341 150.049C136.313 150.533 136.103 150.989 135.752 151.325C135.401 151.66 134.936 151.849 134.451 151.855C134.216 151.858 133.983 151.812 133.767 151.721C133.55 151.631 133.355 151.497 133.192 151.327C133.03 151.158 132.904 150.957 132.822 150.737C132.74 150.517 132.704 150.283 132.717 150.049C132.744 149.563 132.956 149.106 133.308 148.771C133.66 148.435 134.127 148.247 134.613 148.243C134.847 148.241 135.079 148.287 135.295 148.378C135.511 148.469 135.705 148.603 135.867 148.772C136.029 148.942 136.155 149.142 136.236 149.362C136.318 149.581 136.353 149.815 136.341 150.049Z" fill="#263238"/>
<path d="M144.48 150.049C144.453 150.534 144.241 150.991 143.889 151.327C143.537 151.662 143.07 151.851 142.584 151.855C142.35 151.856 142.118 151.809 141.902 151.718C141.687 151.627 141.492 151.493 141.33 151.324C141.167 151.155 141.041 150.955 140.959 150.735C140.876 150.516 140.839 150.283 140.85 150.049C140.879 149.564 141.091 149.108 141.443 148.772C141.795 148.437 142.26 148.248 142.746 148.243C142.981 148.24 143.214 148.285 143.43 148.376C143.646 148.467 143.842 148.601 144.004 148.77C144.167 148.939 144.293 149.14 144.375 149.36C144.457 149.58 144.492 149.814 144.48 150.049Z" fill="#263238"/>
<path d="M152.583 150.049C152.554 150.534 152.342 150.99 151.99 151.325C151.638 151.66 151.173 151.85 150.687 151.855C150.452 151.856 150.221 151.809 150.005 151.718C149.789 151.627 149.595 151.492 149.432 151.324C149.27 151.155 149.144 150.955 149.062 150.735C148.979 150.516 148.942 150.283 148.953 150.049C148.982 149.564 149.194 149.108 149.545 148.772C149.897 148.437 150.363 148.248 150.849 148.243C151.084 148.241 151.316 148.287 151.532 148.378C151.748 148.469 151.943 148.603 152.105 148.772C152.268 148.941 152.394 149.142 152.476 149.361C152.558 149.581 152.594 149.815 152.583 150.049Z" fill="#263238"/>
<path d="M160.734 150.049C160.705 150.534 160.493 150.99 160.141 151.325C159.79 151.66 159.324 151.85 158.838 151.855C158.603 151.858 158.37 151.812 158.154 151.721C157.938 151.631 157.742 151.497 157.58 151.327C157.417 151.158 157.291 150.957 157.209 150.737C157.127 150.517 157.092 150.283 157.104 150.049C157.131 149.563 157.343 149.106 157.695 148.771C158.047 148.435 158.514 148.247 159 148.243C159.235 148.241 159.467 148.287 159.683 148.378C159.899 148.469 160.094 148.603 160.256 148.772C160.419 148.941 160.545 149.142 160.627 149.361C160.709 149.581 160.745 149.815 160.734 150.049Z" fill="#263238"/>
<path d="M159.502 76.4817C162.021 74.0177 162.155 70.0681 159.8 67.6601C157.446 65.2522 153.494 65.2976 150.974 67.7616C148.455 70.2257 148.321 74.1752 150.676 76.5832C153.031 78.9911 156.982 78.9457 159.502 76.4817Z" fill="#4AC3F0"/>
<path d="M167.079 86.3453C165.579 88.3103 163.649 89.9056 161.437 91.0086C159.224 92.1116 156.789 92.6931 154.317 92.7084C151.92 92.7288 149.554 92.159 147.429 91.0493C145.304 89.9396 143.485 88.3241 142.132 86.3453C145.058 83.4316 149.687 81.5293 154.816 81.5293C159.945 81.5293 164.412 83.4316 167.079 86.3453Z" fill="#4AC3F0"/>
<path opacity="0.1" d="M159.502 76.4817C162.021 74.0177 162.155 70.0681 159.8 67.6601C157.446 65.2522 153.494 65.2976 150.974 67.7616C148.455 70.2257 148.321 74.1752 150.676 76.5832C153.031 78.9911 156.982 78.9457 159.502 76.4817Z" fill="white"/>
<path opacity="0.1" d="M167.079 86.3453C165.579 88.3103 163.649 89.9056 161.437 91.0086C159.224 92.1116 156.789 92.6931 154.317 92.7084C151.92 92.7288 149.554 92.159 147.429 91.0493C145.304 89.9396 143.485 88.3241 142.132 86.3453C145.058 83.4316 149.687 81.5293 154.816 81.5293C159.945 81.5293 164.412 83.4316 167.079 86.3453Z" fill="white"/>
<path d="M78.5067 127.889C77.9348 129.141 77.3328 130.52 76.8091 131.856C76.2854 133.193 75.7496 134.571 75.286 135.944C74.3396 138.649 73.6187 141.428 73.1309 144.252L72.9984 145.137C72.9858 145.288 73.0001 145.441 73.0406 145.588C73.1826 146.087 73.4064 146.559 73.7028 146.985C74.4759 148.087 75.3727 149.097 76.3757 149.995C77.4331 150.978 78.5424 151.905 79.6987 152.77C80.8545 153.661 82.0706 154.528 83.2686 155.346L82.1428 157.459C79.2822 156.213 76.567 154.657 74.0459 152.818C72.7009 151.837 71.487 150.688 70.4339 149.399C69.8097 148.631 69.3229 147.762 68.9951 146.828C68.8046 146.245 68.707 145.636 68.7062 145.022C68.7062 144.878 68.7062 144.667 68.7062 144.565V144.27L68.7664 143.668C69.1115 140.531 69.771 137.437 70.7349 134.433C71.2045 132.952 71.7041 131.477 72.276 130.038C72.8479 128.6 73.4379 127.191 74.1663 125.728L78.5067 127.889Z" fill="#E58A7B"/>
<path d="M82.4198 154.973L86.6759 152.818L85.5742 157.489C85.5742 157.489 82.6545 158.308 81.3 156.887L82.4198 154.973Z" fill="#E58A7B"/>
<path d="M90.5709 153.582L89.4392 157.447L85.5743 157.489L86.676 152.818L90.5709 153.582Z" fill="#E58A7B"/>
<path d="M96.5788 105.35C96.8065 106.184 97.1233 106.992 97.524 107.758C97.4069 107.891 97.2562 107.989 97.0877 108.043C96.9192 108.098 96.7392 108.105 96.5668 108.065L96.5788 105.35Z" fill="#DF5753"/>
<path d="M96.4525 105.387C96.7018 105.387 96.904 105.077 96.904 104.694C96.904 104.312 96.7018 104.002 96.4525 104.002C96.2031 104.002 96.001 104.312 96.001 104.694C96.001 105.077 96.2031 105.387 96.4525 105.387Z" fill="#263238"/>
<path d="M96.3198 104.026L97.2349 103.767C97.2349 103.767 96.7894 104.477 96.3198 104.026Z" fill="#263238"/>
<path d="M84.8217 109.769C85.3695 112.568 85.9174 117.703 83.9548 119.576C83.9548 119.576 84.7254 122.417 89.9327 122.417C95.6577 122.417 92.6658 119.576 92.6658 119.576C89.5414 118.829 89.6196 116.511 90.1675 114.332L84.8217 109.769Z" fill="#E58A7B"/>
<path d="M83.2987 103.388C83.5877 108.065 83.6118 110.052 85.9716 112.454C89.5294 116.066 95.2123 114.693 96.326 110.046C97.3313 105.832 96.6932 98.8968 92.112 97.0366C91.1064 96.6224 90.0117 96.4715 88.9316 96.5983C87.8514 96.7251 86.8214 97.1253 85.9391 97.7611C85.0567 98.397 84.3512 99.2474 83.8891 100.232C83.4271 101.217 83.2239 102.303 83.2987 103.388Z" fill="#E58A7B"/>
<path d="M83.7622 98.1263C81.4144 98.9811 78.284 98.343 79.512 105.585C80.8124 113.255 78.8137 115.777 78.8137 115.777C78.8137 115.777 87.7173 117.673 96.8075 115.663C96.8075 115.663 94.0323 110.81 94.8089 107.235C95.8022 102.72 95.0196 101.052 95.0196 101.052C95.0196 101.052 87.0611 96.9223 83.7622 98.1263Z" fill="#263238"/>
<path d="M93.6953 105.826C93.6978 106.715 93.9524 107.586 94.4298 108.336C95.0679 109.311 95.8204 108.938 96.007 107.903C96.1756 106.994 96.0491 105.386 95.2364 104.76C94.4237 104.134 93.7074 104.748 93.6953 105.826Z" fill="#E58A7B"/>
<path d="M81.7217 98.9149C81.0474 97.0186 84.2621 94.0989 91.0647 95.3029C97.8673 96.5069 98.1623 102.172 98.1623 102.172L96.7897 100.534L96.8499 102.256L89.8607 103.598L81.7217 98.9149Z" fill="#263238"/>
<path d="M82.2993 119.895C82.2591 119.62 82.3279 119.34 82.491 119.115C82.654 118.89 82.8984 118.738 83.1722 118.691C85.2912 118.342 90.1072 117.631 92.5272 117.968C94.3332 118.221 94.8028 119.269 94.8811 120.13C94.8933 120.28 94.8732 120.432 94.8219 120.574C94.7707 120.716 94.6897 120.846 94.5841 120.955C94.4786 121.063 94.3512 121.147 94.2103 121.202C94.0694 121.257 93.9184 121.282 93.7674 121.273L83.3046 120.804C83.058 120.791 82.8232 120.694 82.64 120.528C82.4568 120.363 82.3364 120.139 82.2993 119.895Z" fill="#4AC3F0"/>
<path opacity="0.6" d="M82.2993 119.895C82.2591 119.62 82.3279 119.34 82.491 119.115C82.654 118.89 82.8984 118.738 83.1722 118.691C85.2912 118.342 90.1072 117.631 92.5272 117.968C94.3332 118.221 94.8028 119.269 94.8811 120.13C94.8933 120.28 94.8732 120.432 94.8219 120.574C94.7707 120.716 94.6897 120.846 94.5841 120.955C94.4786 121.063 94.3512 121.147 94.2103 121.202C94.0694 121.257 93.9184 121.282 93.7674 121.273L83.3046 120.804C83.058 120.791 82.8232 120.694 82.64 120.528C82.4568 120.363 82.3364 120.139 82.2993 119.895Z" fill="black"/>
<path d="M88.3495 225.064L92.2324 227.761L98.728 218.954L94.8451 216.263L88.3495 225.064Z" fill="#E58A7B"/>
<path d="M79.2954 224.89L83.395 227.225L89.1441 217.912L85.0445 215.577L79.2954 224.89Z" fill="#E58A7B"/>
<path d="M98.7221 218.954L95.375 223.493L91.4921 220.802L94.8392 216.263L98.7221 218.954Z" fill="#CF6F64"/>
<path d="M85.0385 215.577L89.1441 217.918L86.1823 222.716L82.0767 220.375L85.0385 215.577Z" fill="#CF6F64"/>
<path d="M91.6243 149.296C91.6243 149.296 106.783 168.398 103.935 186.669C101.642 201.424 88.3374 221.404 88.3374 221.404L82.0826 218.298C86.4913 209.463 90.2537 200.321 93.34 190.943C94.2918 188.031 94.5695 184.941 94.1524 181.906C93.7353 178.872 92.6341 175.971 90.932 173.425C83.2505 162.209 70.9456 168.885 79.2231 149.296H91.6243Z" fill="#4AC3F0"/>
<path opacity="0.6" d="M91.6243 149.296C91.6243 149.296 106.783 168.398 103.935 186.669C101.642 201.424 88.3374 221.404 88.3374 221.404L82.0826 218.298C86.4913 209.463 90.2537 200.321 93.34 190.943C94.2918 188.031 94.5695 184.941 94.1524 181.906C93.7353 178.872 92.6341 175.971 90.932 173.425C83.2505 162.209 70.9456 168.885 79.2231 149.296H91.6243Z" fill="black"/>
<path opacity="0.4" d="M99.0592 161.565L96.8558 159.374C96.8558 159.548 101.124 185.898 102.322 193.302C103.029 191.139 103.57 188.925 103.941 186.68C105.35 177.716 102.406 168.56 99.0592 161.565Z" fill="black"/>
<path d="M98.3909 149.296C98.3909 149.296 116.643 173.304 117.161 187.698C117.589 199.738 97.2952 223.065 97.2952 223.065L91.3956 219.249C91.3956 219.249 103.273 202.682 106.265 189.149C105.109 175.736 80.668 149.296 80.668 149.296H98.3909Z" fill="#4AC3F0"/>
<path opacity="0.6" d="M98.3909 149.296C98.3909 149.296 116.643 173.304 117.161 187.698C117.589 199.738 97.2952 223.065 97.2952 223.065L91.3956 219.249C91.3956 219.249 103.273 202.682 106.265 189.149C105.109 175.736 80.668 149.296 80.668 149.296H98.3909Z" fill="black"/>
<path d="M75.8098 120.647C73.8593 121.11 71.9871 128.202 71.9871 128.202L79.6144 133.295C79.6144 133.295 82.1549 127.684 81.2639 125.228C80.3428 122.67 78.2599 120.063 75.8098 120.647Z" fill="#4AC3F0"/>
<path opacity="0.2" d="M77.303 125.216L76.7732 131.399L79.6086 133.301C80.3915 131.539 80.9712 129.693 81.3364 127.799L77.303 125.216Z" fill="black"/>
<path d="M100.648 120.785C100.648 120.785 102.9 121.574 98.3908 149.29H79.2111C79.5362 141.464 79.5422 136.648 75.8098 120.647C78.4954 120.093 81.2175 119.735 83.9549 119.575C86.8548 119.367 89.7659 119.367 92.6658 119.575C96.4102 119.919 100.648 120.785 100.648 120.785Z" fill="#4AC3F0"/>
<path d="M102.599 125.216C103.032 126.42 103.49 127.714 103.971 128.96C104.453 130.207 104.91 131.489 105.398 132.753L106.873 136.534L107.246 137.479L107.439 137.948L107.529 138.183C107.529 138.225 107.529 138.225 107.529 138.219C107.419 138.064 107.275 137.936 107.108 137.846C106.87 137.706 106.601 137.625 106.325 137.611C106.096 137.604 105.868 137.647 105.657 137.738C105.38 137.864 105.38 137.918 105.386 137.912C105.436 137.872 105.481 137.825 105.519 137.774C105.852 137.336 106.14 136.866 106.379 136.371C106.662 135.817 106.933 135.227 107.204 134.631C107.734 133.427 108.221 132.181 108.709 130.923C109.197 129.665 109.66 128.394 110.112 127.112L111.484 123.271L113.802 123.873C113.344 126.619 112.755 129.291 112.044 132.013C111.701 133.367 111.298 134.709 110.84 136.064C110.611 136.744 110.359 137.418 110.07 138.111C109.768 138.862 109.398 139.584 108.962 140.266C108.802 140.496 108.625 140.713 108.432 140.916C108.125 141.248 107.752 141.513 107.337 141.693C106.968 141.851 106.569 141.925 106.169 141.909C105.72 141.893 105.283 141.762 104.898 141.53C104.445 141.247 104.069 140.856 103.803 140.392C103.712 140.236 103.634 140.079 103.58 139.965L103.466 139.736L103.237 139.267L102.779 138.334C102.177 137.081 101.575 135.817 101.052 134.547C100.528 133.277 99.9741 131.988 99.4564 130.694C98.9386 129.4 98.4751 128.106 98.0356 126.709L102.599 125.216Z" fill="#E58A7B"/>
<path d="M100.648 120.785C102.954 121.333 105.549 128.148 105.549 128.148L98.6917 133.981C98.6917 133.981 94.255 126.553 95.152 124.102C96.0851 121.55 97.6382 120.069 100.648 120.785Z" fill="#4AC3F0"/>
<path d="M112.574 121.117L114.982 119.106L116.656 121.713L115.421 123.886C115.421 123.886 113.459 125.692 111.725 124.771C111.45 124.152 111.384 123.461 111.537 122.801C111.69 122.142 112.054 121.551 112.574 121.117Z" fill="#E58A7B"/>
<path d="M119.328 119.112L119.148 119.768L115.337 120.406L114.964 119.106L119.328 119.112Z" fill="#E58A7B"/>
<path d="M97.7648 223.372L90.89 218.93L92.1241 216.787L99.8478 221.536L97.7648 223.372Z" fill="#4AC3F0"/>
<path d="M86.0861 226.912C85.4829 226.838 84.9033 226.633 84.3884 226.31C84.3672 226.303 84.3488 226.289 84.3357 226.27C84.3227 226.252 84.3157 226.23 84.3157 226.208C84.3157 226.185 84.3227 226.163 84.3357 226.145C84.3488 226.127 84.3672 226.113 84.3884 226.105C84.575 226.045 86.1944 225.545 86.664 225.931C86.7168 225.975 86.7569 226.032 86.7802 226.096C86.8034 226.161 86.8091 226.231 86.7964 226.298C86.7881 226.406 86.7521 226.511 86.6921 226.601C86.632 226.692 86.5498 226.766 86.4533 226.816C86.3405 226.877 86.2145 226.91 86.0861 226.912ZM84.7316 226.25C85.4841 226.635 86.0861 226.774 86.375 226.629C86.4379 226.594 86.4909 226.544 86.5288 226.483C86.5668 226.422 86.5884 226.352 86.5917 226.28C86.5917 226.184 86.5917 226.141 86.5376 226.117C86.2847 225.913 85.3817 226.069 84.7195 226.25H84.7316Z" fill="#263238"/>
<path d="M84.4306 226.352C84.3988 226.352 84.3685 226.339 84.3463 226.316C84.3373 226.3 84.3326 226.281 84.3326 226.262C84.3326 226.243 84.3373 226.224 84.3463 226.208C84.3463 226.154 84.7376 224.847 85.3516 224.552C85.4301 224.517 85.5153 224.498 85.6015 224.498C85.6877 224.498 85.7729 224.517 85.8513 224.552C85.9358 224.579 86.009 224.633 86.0592 224.706C86.1094 224.779 86.1337 224.867 86.1282 224.956C86.0861 225.497 84.9844 226.244 84.4787 226.37L84.4306 226.352ZM85.5985 224.709C85.5399 224.711 85.4824 224.725 85.4299 224.751C85.0567 224.932 84.7496 225.636 84.5991 226.063C85.1289 225.841 85.8573 225.251 85.8814 224.92C85.8814 224.865 85.8814 224.799 85.7429 224.739C85.6979 224.715 85.649 224.698 85.5985 224.691V224.709Z" fill="#263238"/>
<path d="M94.6766 229.513C93.9964 229.513 93.0512 228.64 92.5335 228.104C92.5203 228.086 92.5132 228.064 92.5132 228.041C92.5132 228.018 92.5203 227.996 92.5335 227.978C92.5454 227.958 92.5623 227.943 92.5824 227.932C92.6026 227.921 92.6252 227.916 92.6479 227.918C92.8887 227.918 94.9776 228.231 95.2726 228.821C95.3039 228.874 95.3204 228.934 95.3204 228.995C95.3204 229.057 95.3039 229.117 95.2726 229.17C95.2284 229.262 95.1615 229.341 95.0784 229.4C94.9952 229.459 94.8984 229.496 94.797 229.507L94.6766 229.513ZM92.9308 228.189C93.6894 228.923 94.3576 229.332 94.7368 229.284C94.8033 229.276 94.8665 229.251 94.9211 229.212C94.9757 229.173 95.0199 229.121 95.0499 229.061C95.0634 229.041 95.0705 229.017 95.0705 228.992C95.0705 228.968 95.0634 228.944 95.0499 228.923C94.8934 228.598 93.7797 228.321 92.9308 228.189Z" fill="#263238"/>
<path d="M92.9969 228.158C92.8618 228.162 92.7266 228.152 92.5936 228.128C92.575 228.125 92.5574 228.118 92.5427 228.106C92.5279 228.095 92.5164 228.079 92.5093 228.062C92.5003 228.044 92.4956 228.025 92.4956 228.005C92.4956 227.985 92.5003 227.965 92.5093 227.948C92.5454 227.905 93.3581 226.924 94.1287 226.858C94.3468 226.841 94.5629 226.91 94.7307 227.051C94.9654 227.255 94.9534 227.436 94.8932 227.55C94.7427 227.96 93.7012 228.158 92.9969 228.158ZM92.8404 227.936C93.5146 227.972 94.5922 227.749 94.7307 227.454C94.7307 227.454 94.7788 227.358 94.6223 227.225C94.56 227.171 94.4873 227.13 94.4086 227.105C94.3298 227.081 94.2469 227.072 94.1648 227.081C93.6457 227.226 93.1835 227.526 92.8404 227.942V227.936Z" fill="#263238"/>
<path d="M84.5929 225.702L79.4879 224.257C79.3999 224.231 79.3052 224.237 79.2219 224.276C79.1386 224.315 79.0725 224.383 79.0364 224.468L77.3147 228.339C77.2743 228.438 77.2553 228.545 77.259 228.652C77.2627 228.759 77.289 228.864 77.3362 228.96C77.3834 229.056 77.4504 229.141 77.5328 229.209C77.6152 229.277 77.7112 229.328 77.8144 229.356C79.6204 229.826 80.4872 229.958 82.7327 230.602C84.1173 230.988 86.0919 231.704 88.0002 232.246C89.9085 232.788 90.5467 230.927 89.8062 230.53C86.4591 228.76 86.1942 227.52 85.2792 226.196C85.1153 225.956 84.8724 225.781 84.5929 225.702Z" fill="#4AC3F0"/>
<path d="M92.6719 227.4L88.3134 224.39C88.2395 224.336 88.1484 224.311 88.0574 224.32C87.9664 224.329 87.8819 224.371 87.8198 224.438L84.9302 227.544C84.8598 227.625 84.8072 227.719 84.7761 227.821C84.745 227.923 84.7359 228.031 84.7496 228.137C84.7633 228.243 84.7993 228.345 84.8554 228.435C84.9114 228.526 84.9862 228.604 85.0747 228.664C86.6098 229.694 87.4044 230.109 89.3248 231.439C90.5288 232.258 92.8585 234.076 94.4839 235.208C96.1093 236.34 97.3193 234.786 96.7414 234.172C94.1528 231.409 93.5869 229.675 93.1595 228.104C93.0853 227.819 92.9126 227.57 92.6719 227.4Z" fill="#4AC3F0"/>
<path d="M89.1382 221.801L81.2821 217.894L82.0948 215.763L90.4867 219.881L89.1382 221.801Z" fill="#4AC3F0"/>
<path d="M78.922 148.165L78.2598 149.898C78.1936 150.031 78.3501 150.169 78.5729 150.169H98.487C98.6616 150.169 98.8061 150.085 98.8181 149.977L98.9867 148.255C98.9867 148.141 98.8482 148.038 98.6616 148.038H79.2351C79.1766 148.033 79.1176 148.041 79.0632 148.063C79.0087 148.085 78.9603 148.12 78.922 148.165Z" fill="#4AC3F0"/>
<path opacity="0.4" d="M78.922 148.165L78.2598 149.898C78.1936 150.031 78.3501 150.169 78.5729 150.169H98.487C98.6616 150.169 98.8061 150.085 98.8181 149.977L98.9867 148.255C98.9867 148.141 98.8482 148.038 98.6616 148.038H79.2351C79.1766 148.033 79.1176 148.041 79.0632 148.063C79.0087 148.085 78.9603 148.12 78.922 148.165Z" fill="white"/>
<path d="M82.0585 150.338H81.5348C81.4324 150.338 81.3542 150.284 81.3602 150.217L81.607 147.984C81.607 147.924 81.7033 147.87 81.8057 147.87H82.3294C82.4317 147.87 82.51 147.924 82.504 147.984L82.2572 150.217C82.2512 150.284 82.1608 150.338 82.0585 150.338Z" fill="#4AC3F0"/>
<path d="M94.3394 150.338H93.8216C93.7193 150.338 93.641 150.284 93.6471 150.217L93.8879 147.984C93.8879 147.924 93.9902 147.87 94.0925 147.87H94.6103C94.7126 147.87 94.7969 147.924 94.7848 147.984L94.544 150.217C94.5139 150.284 94.4477 150.338 94.3394 150.338Z" fill="#4AC3F0"/>
<g style="mix-blend-mode:multiply">
<path d="M81.6011 252.286C90.5081 252.286 97.7287 251.764 97.7287 251.119C97.7287 250.474 90.5081 249.951 81.6011 249.951C72.6941 249.951 65.4735 250.474 65.4735 251.119C65.4735 251.764 72.6941 252.286 81.6011 252.286Z" fill="#F5F5F5"/>
</g>
<path d="M91.4256 249.469C88.5721 248.638 85.4056 247.573 83.4913 246.459C83.4371 246.423 83.3769 246.405 83.3227 246.375V233.456H89.0959C89.5341 233.43 89.9459 233.238 90.247 232.918C90.5481 232.599 90.7158 232.176 90.7158 231.737C90.7158 231.298 90.5481 230.876 90.247 230.556C89.9459 230.237 89.5341 230.044 89.0959 230.019H83.3528V171.131H79.8853V230.019H74.1482C73.9139 230.005 73.6793 230.039 73.4587 230.119C73.2382 230.199 73.0363 230.323 72.8655 230.484C72.6948 230.645 72.5587 230.839 72.4657 231.055C72.3727 231.27 72.3247 231.503 72.3247 231.737C72.3247 231.972 72.3727 232.204 72.4657 232.42C72.5587 232.635 72.6948 232.829 72.8655 232.99C73.0363 233.151 73.2382 233.275 73.4587 233.356C73.6793 233.436 73.9139 233.47 74.1482 233.456H79.8853V246.357C79.8311 246.357 79.7769 246.405 79.7227 246.441C77.7783 247.573 74.6358 248.638 71.7823 249.451C71.5896 249.509 71.4241 249.635 71.3158 249.805C71.2075 249.974 71.1635 250.177 71.1919 250.377C71.2203 250.576 71.3191 250.759 71.4705 250.891C71.6218 251.024 71.8158 251.098 72.0171 251.101H91.1908C91.3833 251.087 91.5654 251.009 91.7068 250.878C91.8481 250.746 91.9403 250.571 91.9677 250.38C91.9952 250.189 91.9564 249.994 91.8577 249.829C91.759 249.663 91.6065 249.536 91.4256 249.469Z" fill="#E0E0E0"/>
<path d="M92.3108 165.135H70.9036C69.1814 165.135 67.7853 166.531 67.7853 168.253V174.616C67.7853 176.338 69.1814 177.735 70.9036 177.735H92.3108C94.033 177.735 95.4291 176.338 95.4291 174.616V168.253C95.4291 166.531 94.033 165.135 92.3108 165.135Z" fill="#4AC3F0"/>
<path d="M70.7048 177.741V178.836C70.7048 179.739 71.6861 180.474 72.8901 180.474H90.3481C91.5521 180.474 92.5334 179.739 92.5334 178.836V177.741H70.7048Z" fill="#4AC3F0"/>
<path opacity="0.3" d="M70.7048 177.741V178.836C70.7048 179.739 71.6861 180.474 72.8901 180.474H90.3481C91.5521 180.474 92.5334 179.739 92.5334 178.836V177.741H70.7048Z" fill="white"/>
</svg>
